# xmcd
#
# Track frame offsets: 
#        150
#        15359
#        41269
#        50250
#        66225
#        82728
#        99075
#        112469
#        135518
#        148958
#        166810
#        188976
#        202000
#        215266
#
# Disc length: 3110 seconds
#
# Revision: 3
# Processed by: cddbd v1.5.2PL0 Copyright (c) Steve Scherf et al.
# Submitted via: ExactAudioCopy v0.95b2
#
DISCID=bc0c240e
DTITLE=David Nevue - Postcards from Germany
DYEAR=2001
DGENRE=New Age
TTITLE0=Postcards from Germany
TTITLE1=Racing the Northern Lights
TTITLE2=Song At the Speyer Cathedral
TTITLE3=The Amazing Accordion Man
TTITLE4=Big Snow in Salzburg
TTITLE5=Wonderland
TTITLE6=One Night At Mozart's
TTITLE7=In God's Hands
TTITLE8=The Kindness of Strangers
TTITLE9=Ludwig's Dream
TTITLE10=The Walled City
TTITLE11=The View from Burg Stahleck
TTITLE12=Castle Hunting
TTITLE13=Far from Home
EXTD=
EXTT0=
EXTT1=
EXTT2=
EXTT3=
EXTT4=
EXTT5=
EXTT6=
EXTT7=
EXTT8=
EXTT9=
EXTT10=
EXTT11=
EXTT12=
EXTT13=
PLAYORDER=
